# xmcd
#
# Track frame offsets: 
#        150
#        17756
#        32399
#        45381
#        66842
#        76655
#        96290
#        116545
#        131929
#        148567
#        159189
#        169520
#        191723
#        211725
#
# Disc length: 2948 seconds
#
# Revision: 0
# Processed by: cddbd v1.5.2PL0 Copyright (c) Steve Scherf et al.
# Submitted via: ExactAudioCopy v0.99pb5
#
DISCID=ad0b820e
DTITLE=Williams Wetsox - Da Blues Des Is A Deife
DYEAR=1998
DGENRE=Blues
TTITLE0=s'zwoate Moi
TTITLE1=wer hod d'Macht
TTITLE2=da hoibe simme Zug
TTITLE3=es is wohr
TTITLE4=Samstag Nacht
TTITLE5=Jazzschui
TTITLE6=da Willi (vo Geitau)
TTITLE7=da boarische Blusmo
TTITLE8=Br‰uwastl spezial
TTITLE9=Leid laﬂt's eich Zeit
TTITLE10=Katz und Maus
TTITLE11=so alloa
TTITLE12=der Bach
TTITLE13=da Faschingsdienstagmorg'n
EXTD=
EXTT0=
EXTT1=
EXTT2=
EXTT3=
EXTT4=
EXTT5=
EXTT6=
EXTT7=
EXTT8=
EXTT9=
EXTT10=
EXTT11=
EXTT12=
EXTT13=
PLAYORDER=
